<svg id="Layer_1" data-name="Layer 1" xmlns="http://www.w3.org/2000/svg" viewBox="0 0 1125.83 526.14"><defs><style>.cls-1{fill:#8bc500;}.cls-1,.cls-10,.cls-2,.cls-3,.cls-8,.cls-9{opacity:0.7;}.cls-2{fill:#f7e018;}.cls-4{fill:#ff9a00;}.cls-5{fill:#61dafb;}.cls-6{fill:#31475e;}.cls-7{fill:#3fb984;}.cls-8{fill:#469e46;}.cls-9{fill:#2473c0;}.cls-10{fill:#0096dc;}</style></defs><path class="cls-1" d="M664.51,130.78a4,4,0,0,1-1.93-.5l-6.11-3.63c-.91-.51-.45-.69-.18-.79a11.22,11.22,0,0,0,2.76-1.23.43.43,0,0,1,.46,0l4.68,2.81a.61.61,0,0,0,.56,0l18.32-10.61a.53.53,0,0,0,.28-.51V95.18a.51.51,0,0,0-.28-.5L664.75,84.11a.61.61,0,0,0-.56,0L645.86,94.68a.57.57,0,0,0-.27.5v21.18a.57.57,0,0,0,.27.5l5,2.9c2.71,1.37,4.41-.24,4.41-1.84V97a.55.55,0,0,1,.55-.55h2.35a.56.56,0,0,1,.55.55v20.9c0,3.63-2,5.74-5.42,5.74a7.89,7.89,0,0,1-4.23-1.15l-4.82-2.75a3.88,3.88,0,0,1-1.93-3.35V95.23a3.9,3.9,0,0,1,1.93-3.36l18.32-10.6a4.08,4.08,0,0,1,3.87,0l18.32,10.6a3.88,3.88,0,0,1,1.93,3.36v21.18a3.87,3.87,0,0,1-1.93,3.35l-18.32,10.61A4.86,4.86,0,0,1,664.51,130.78Zm5.65-14.56c-8,0-9.69-3.68-9.69-6.8a.56.56,0,0,1,.55-.55h2.39a.46.46,0,0,1,.5.46c.37,2.43,1.43,3.63,6.3,3.63,3.85,0,5.51-.88,5.51-2.94,0-1.2-.46-2.07-6.48-2.67-5-.5-8.12-1.61-8.12-5.6,0-3.72,3.12-5.92,8.36-5.92,5.87,0,8.77,2,9.13,6.43a.7.7,0,0,1-.14.41.54.54,0,0,1-.36.18h-2.39a.51.51,0,0,1-.5-.41c-.56-2.53-2-3.35-5.74-3.35-4.23,0-4.74,1.47-4.74,2.57,0,1.33.6,1.74,6.3,2.48s8.31,1.79,8.31,5.74S676,116.22,670.16,116.22Z" transform="translate(-94.18 -72.03)"/><path class="cls-2" d="M1151.85,72h50v50h-50Zm45.91,38.07c-.37-2.28-1.85-4.19-6.26-6-1.53-.72-3.24-1.22-3.75-2.37a2.47,2.47,0,0,1-.09-1.47c.31-1.35,1.91-1.75,3.16-1.38a3.4,3.4,0,0,1,2,1.88c2.15-1.41,2.15-1.41,3.66-2.34a9.17,9.17,0,0,0-1.22-1.63c-1.32-1.47-3.07-2.22-5.91-2.16l-1.47.19a6.78,6.78,0,0,0-3.56,2.1,6.53,6.53,0,0,0,1.19,9.31c2.84,2.13,7,2.59,7.53,4.59.5,2.44-1.81,3.22-4.1,2.94a5.51,5.51,0,0,1-3.65-2.78l-3.81,2.19a8.31,8.31,0,0,0,1.68,2.31c3.63,3.65,12.69,3.47,14.32-2.1a7.11,7.11,0,0,0,.15-3.43ZM1179,95h-4.68c0,4,0,8,0,12.09,0,2.57.13,4.93-.29,5.65-.69,1.44-2.46,1.25-3.26,1a4,4,0,0,1-1.73-1.78c-.13-.22-.23-.41-.27-.41l-3.8,2.35a7.46,7.46,0,0,0,2.76,3.16,9.19,9.19,0,0,0,6.68.84,5.83,5.83,0,0,0,3.77-2.94c1.07-1.93.84-4.31.83-7,0-4.28,0-8.56,0-12.87Z" transform="translate(-94.18 -72.03)"/><g class="cls-3"><path class="cls-4" d="M163.87,97a18.26,18.26,0,0,1-3.29-.33,15.94,15.94,0,0,1-3-1l-.71-.17h-.5c-.42,0-.62.29-.62.88v1.37a1.76,1.76,0,0,0,0,.79,2,2,0,0,0,.87.79,12.18,12.18,0,0,0,3.16,1.08,17.67,17.67,0,0,0,4.16.5,12.47,12.47,0,0,0,4.16-.58,8.11,8.11,0,0,0,3-1.54,6.68,6.68,0,0,0,2.74-5.66,6.4,6.4,0,0,0-1.24-3.87,9,9,0,0,0-4.16-2.66l-4-1.25a8.13,8.13,0,0,1-3-1.5,2.67,2.67,0,0,1-.84-2,2.76,2.76,0,0,1,1.29-2.5,7.68,7.68,0,0,1,3.71-.75,12.16,12.16,0,0,1,5.28,1.08,3.24,3.24,0,0,0,1.08.34c.42,0,.63-.34.63-.92v-1.5a1.62,1.62,0,0,0-.25-.91,2.56,2.56,0,0,0-.83-.67,7.48,7.48,0,0,0-1.17-.5,14.89,14.89,0,0,0-1.58-.45L167,74.76a13.89,13.89,0,0,0-2,0,11.49,11.49,0,0,0-3.45.46,9.18,9.18,0,0,0-2.92,1.45,6.7,6.7,0,0,0-1.95,2.25,6.27,6.27,0,0,0-.75,3.08,6.71,6.71,0,0,0,1.37,4.16A8.73,8.73,0,0,0,161.62,89l4.16,1.25a6.54,6.54,0,0,1,2.79,1.41,2.74,2.74,0,0,1,.75,2,3,3,0,0,1-1.46,2.62A7.64,7.64,0,0,1,163.87,97ZM139.7,76.84a2.09,2.09,0,0,0-.54-1.08,1.56,1.56,0,0,0-1.09-.29h-2.28a1.83,1.83,0,0,0-1.09.29,1.78,1.78,0,0,0-.54,1.08L130,95.15l-4.74-18.31a2,2,0,0,0-.58-1.08,2.65,2.65,0,0,0-1.08-.29h-2.71c-.46,0-.66.25-.66.71a4.89,4.89,0,0,0,.25,1.12L127,98.68a2.4,2.4,0,0,0,.5,1,1.84,1.84,0,0,0,1.08.25h2.37a2,2,0,0,0,1.12-.25,2.33,2.33,0,0,0,.5-1.12l4.16-17.81,4.16,17.85a1.75,1.75,0,0,0,.5,1.08,1.63,1.63,0,0,0,1.13.29h2.37a1.68,1.68,0,0,0,1-.29,1.8,1.8,0,0,0,.58-1.08l6.7-21.38a3.75,3.75,0,0,0,0-.67,3.53,3.53,0,0,0,0-.46.62.62,0,0,0-.53-.7.54.54,0,0,0-.18,0h-2.58a1.8,1.8,0,0,0-1.08.29,2.68,2.68,0,0,0-.54,1.08l-4.16,18.76ZM109.87,85.7a24.4,24.4,0,0,0-3-.21,10.12,10.12,0,0,0-6.78,2.17,7.87,7.87,0,0,0-.46,11,7.55,7.55,0,0,0,5.54,2,10.32,10.32,0,0,0,8.32-3.83,14.69,14.69,0,0,0,.83,1.63,11.14,11.14,0,0,0,1,1.29,1.09,1.09,0,0,0,1.53,0h0l1.75-1.17a1.19,1.19,0,0,0,.54-.83,1.27,1.27,0,0,0,0-.67,15.51,15.51,0,0,1-.88-1.95,8.47,8.47,0,0,1-.29-2.5V83.87a9.13,9.13,0,0,0-2.29-6.82A10,10,0,0,0,108,74.76a18.53,18.53,0,0,0-7.66,1.79,2,2,0,0,0-.75.58,1.57,1.57,0,0,0,0,1v1.37c0,.58,0,.83.58.83a.9.9,0,0,0,.46,0l1-.33a18.55,18.55,0,0,1,2.62-1,12.64,12.64,0,0,1,3-.37,6.21,6.21,0,0,1,4.49,1.29A6.08,6.08,0,0,1,113,84.25v2Zm3.24,3.75v1.12a9.35,9.35,0,0,1-.29,2.41,4.21,4.21,0,0,1-1,1.79,5.71,5.71,0,0,1-2.62,1.75,8.78,8.78,0,0,1-2.83.5,3.9,3.9,0,0,1-2.91-1,4.56,4.56,0,0,1,.38-6.12A6.33,6.33,0,0,1,108,88.78h2.58A24.08,24.08,0,0,1,113.11,89.45Zm55,22.75a81.66,81.66,0,0,1-31.41,6.41,83.21,83.21,0,0,1-41.19-10.9c-1-.62-1.79.42-.91,1.21a61.11,61.11,0,0,0,41.23,15.77,59.88,59.88,0,0,0,33.7-10.28C170.9,113.12,169.61,111.41,168.07,112.2Z" transform="translate(-94.18 -72.03)"/><path class="cls-4" d="M162.33,108.29c-.79.59-.67,1.38.21,1.25,3-.37,9.48-1.12,10.65.38s-1.29,7.61-2.41,10.36c-.34.83.41,1.16,1.16.54a16.24,16.24,0,0,0,5.12-13.9A16.4,16.4,0,0,0,162.33,108.29Z" transform="translate(-94.18 -72.03)"/></g><g class="cls-3"><circle class="cls-5" cx="47.03" cy="484.84" r="5.01"/><path class="cls-5" d="M127.18,566.84l-1.11-.29c-8.23-2.08-13-5.61-13-9.69s4.73-7.61,13-9.69l1.11-.28.31,1.1a55.69,55.69,0,0,0,3.19,8.37l.24.5-.24.5a55.14,55.14,0,0,0-3.19,8.38Zm-1.62-17.11c-6.26,1.76-10.1,4.45-10.1,7.13s3.84,5.37,10.1,7.13a58.73,58.73,0,0,1,2.77-7.13A57.14,57.14,0,0,1,125.56,549.73Zm29.68,17.11-.31-1.1a54.35,54.35,0,0,0-3.19-8.38l-.24-.5.24-.5a55.39,55.39,0,0,0,3.19-8.38l.31-1.09,1.11.28c8.24,2.08,13,5.61,13,9.69s-4.72,7.61-13,9.69Zm-1.15-10a58.22,58.22,0,0,1,2.77,7.13c6.26-1.76,10.1-4.45,10.1-7.13s-3.84-5.37-10.1-7.13A58.73,58.73,0,0,1,154.09,556.86Z" transform="translate(-94.18 -72.03)"/><path class="cls-5" d="M125.55,549.72l-.31-1.1c-2.32-8.16-1.62-14,1.93-16s9,.37,14.88,6.36l.8.82-.8.82a55.56,55.56,0,0,0-5.67,6.94l-.32.46-.55,0a55.45,55.45,0,0,0-8.86,1.43ZM130,534.19a3.29,3.29,0,0,0-1.66.41c-2.32,1.34-2.73,6-1.13,12.3a57,57,0,0,1,7.57-1.17,58.57,58.57,0,0,1,4.81-6C135.92,536.21,132.47,534.19,130,534.19Zm22.45,47.68c-3.34,0-7.62-2.51-12.07-7.08l-.79-.81.79-.82a55.49,55.49,0,0,0,5.67-6.95l.32-.45.54,0a55.39,55.39,0,0,0,8.87-1.43l1.11-.28.31,1.1c2.31,8.16,1.61,14-1.93,16A5.49,5.49,0,0,1,152.44,581.87ZM142.85,574c3.65,3.55,7.11,5.57,9.59,5.57a3.26,3.26,0,0,0,1.65-.41c2.33-1.34,2.74-6,1.13-12.3a58.66,58.66,0,0,1-7.57,1.17A57.51,57.51,0,0,1,142.85,574Z" transform="translate(-94.18 -72.03)"/><path class="cls-5" d="M156.88,549.72l-1.11-.28A54.29,54.29,0,0,0,146.9,548l-.54,0-.32-.45a53.93,53.93,0,0,0-5.67-7l-.79-.82.79-.81c5.84-6,11.41-8.36,14.89-6.36s4.24,7.89,1.93,16Zm-9.23-4a58.05,58.05,0,0,1,7.57,1.17c1.61-6.3,1.2-11-1.13-12.3s-6.67.71-11.24,5.17A58.47,58.47,0,0,1,147.65,545.73ZM130,581.87a5.44,5.44,0,0,1-2.82-.72c-3.55-2-4.25-7.89-1.94-16l.31-1.1,1.11.28a55.81,55.81,0,0,0,8.86,1.43l.55,0,.31.45a56.39,56.39,0,0,0,5.67,6.95l.8.82-.8.81C137.6,579.36,133.32,581.87,130,581.87Zm-2.79-15c-1.6,6.29-1.19,11,1.13,12.31s6.66-.72,11.25-5.17a60.85,60.85,0,0,1-4.81-6A58.42,58.42,0,0,1,127.2,566.82Z" transform="translate(-94.18 -72.03)"/><path class="cls-5" d="M141.21,568.29c-1.93,0-3.91-.08-5.89-.24l-.55,0-.32-.46c-1.12-1.61-2.18-3.26-3.16-5s-1.89-3.44-2.73-5.22l-.23-.5.23-.5q1.26-2.65,2.73-5.22c1-1.67,2-3.34,3.16-5l.32-.45.55-.05a70.21,70.21,0,0,1,11.78,0l.55.05.31.45a70.19,70.19,0,0,1,5.9,10.18l.23.51-.23.49a68.87,68.87,0,0,1-5.9,10.19l-.31.45-.55,0C145.12,568.21,143.14,568.29,141.21,568.29Zm-5.15-2.53a68.1,68.1,0,0,0,10.3,0,69.67,69.67,0,0,0,5.14-8.9,66.63,66.63,0,0,0-5.14-8.89,68.1,68.1,0,0,0-10.3,0,66.63,66.63,0,0,0-5.14,8.89A69.67,69.67,0,0,0,136.06,565.76Z" transform="translate(-94.18 -72.03)"/></g><g class="cls-3"><path class="cls-6" d="M672.44,575.38l16.12-27.21h-9.44l-6.68,11.54h0l-6.67-11.55h-9.45Z" transform="translate(-94.18 -72.03)"/><path class="cls-7" d="M691.07,548.19l-18.63,31.43-18.63-31.43H643.59l28.85,50,28.85-50Z" transform="translate(-94.18 -72.03)"/></g><path class="cls-8" d="M1021,292.51c-2.1-2.5-3.93-5-4.28-5.55h-.07c-.35.52-2.18,3.05-4.28,5.55-18,23,2.85,38.5,2.85,38.5l.18.12c.15,2.38.55,5.83.55,5.83h1.55s.37-3.43.52-5.83l.18-.15S1039,315.5,1021,292.51Zm-4.35,38.15a8.58,8.58,0,0,1-1.2-1.21l1.2-25,1.12,25A9.18,9.18,0,0,1,1016.6,330.66Z" transform="translate(-94.18 -72.03)"/><path class="cls-9" d="M1220,575.77V548c0-6-10.17-11.12-22.22-11.12S1175.57,542,1175.57,548v27.77c0,6,10.17,11.11,22.22,11.11S1220,581.8,1220,575.77Zm-22.22-33.33c10.25,0,16.48,4.19,16.67,5.54-.19,1.39-6.42,5.57-16.67,5.57s-16.47-4.18-16.66-5.54C1181.32,546.63,1187.54,542.44,1197.79,542.44Zm-16.66,12.8c4.1,2.35,10.1,3.87,16.66,3.87s12.56-1.52,16.67-3.87v6.63c-.19,1.38-6.42,5.57-16.67,5.57s-16.47-4.19-16.66-5.56Zm0,20.53v-6.64c4.1,2.35,10.1,3.87,16.66,3.87s12.56-1.52,16.67-3.87v6.63c-.19,1.38-6.42,5.57-16.67,5.57S1181.32,577.14,1181.13,575.77Z" transform="translate(-94.18 -72.03)"/><path class="cls-10" d="M349.6,292.6h43.75l-4,44.93-17.94,5.07-17.85-5.08Zm35.6,9.2H357.74l.45,5.46h21.09l-.53,5.66H364.92l.5,5.36H378.3l-.76,7.34-6.07,1.67-6.15-1.69-.4-4.39h-5.43l.6,8,11.38,3.54,11.2-3.18Z" transform="translate(-94.18 -72.03)"/></svg>